<?xml version="1.0" encoding="utf-8"?>
<!-- Generator: Adobe Illustrator 25.2.3, SVG Export Plug-In . SVG Version: 6.00 Build 0)  -->
<svg version="1.1" id="Layer_1" xmlns="http://www.w3.org/2000/svg" xmlns:xlink="http://www.w3.org/1999/xlink" x="0px" y="0px"
	 viewBox="0 0 361 56" style="enable-background:new 0 0 361 56;" xml:space="preserve">
<style type="text/css">
	.st0{fill:none;stroke:#FFFFFF;stroke-miterlimit:10;}
</style>
<path class="st0" d="M41.3,40.6L41.3,40.6c0.4-0.4,1-0.7,1.6-0.8c0.6-0.1,1.2,0,1.7,0.3c0,0,0,0,0,0l4.8,2.8l0,0
	c0.2,0.1,0.4,0.3,0.6,0.5c0.1,0.2,0.2,0.4,0.3,0.7c0,0.3,0,0.5,0,0.8c-0.1,0.2-0.2,0.5-0.3,0.7c-4.8,5.7-12,9.1-21.1,9.1
	c-8.6,0-15.6-2.9-20.5-7.8c-4.9-4.8-7.7-11.6-7.7-19.4C0.6,12.3,11.7,0.5,28,0.5c15.4,0,24.9,12.3,24.9,27.2c0,0.7,0,1.4-0.1,2.1
	c-0.1,0.6-0.3,1.1-0.8,1.5c-0.4,0.4-1,0.6-1.6,0.6h0H12h-0.6l0.1,0.6c0.9,4.2,3.1,7.4,6.2,9.6c3,2.1,6.9,3.2,11.2,3.2
	C34.2,45.3,38.5,43.4,41.3,40.6z M43,23.7h0.6l-0.1-0.6c-0.8-4.6-2.9-8-5.8-10.2c-2.8-2.2-6.3-3.2-9.8-3.2c-4.4,0-8.1,1.3-10.9,3.6
	c-2.8,2.3-4.7,5.7-5.5,9.7l-0.1,0.6h0.6H43z"/>
<path class="st0" d="M77.4,52.9L77.4,52.9V22.6c0-4.4,1.1-7.7,3.5-9.8c2.4-2.2,5.9-3.1,10.4-3.1c4.7,0,8.2,0.9,10.5,2.9
	c2.3,2.1,3.4,5.2,3.4,9.5v15.1l5.9,4.7l0,0c0.2,0.1,0.3,0.3,0.4,0.5l-0.5,0.2l0.5-0.2c0.1,0.2,0.1,0.4,0.1,0.6 M0,56L0,56
	 M77.4,52.9c0,0.2,0,0.5-0.1,0.7c-0.1,0.2-0.2,0.4-0.4,0.6c-0.2,0.2-0.4,0.3-0.6,0.4c-0.2,0.1-0.5,0.1-0.7,0.1h-7.4
	c-0.5,0-1-0.2-1.3-0.5c-0.4-0.3-0.5-0.8-0.5-1.3V19.9c0-6.6,2-11.4,4.9-14.6c3-3.2,7-4.8,11.3-4.8h17.3c4.1,0,8.2,1.4,11.3,4.5
	c3.1,3.1,5.2,8,5.2,15v32.8v0c0,0.2,0,0.5-0.1,0.7c-0.1,0.2-0.2,0.4-0.4,0.6c-0.2,0.2-0.4,0.3-0.6,0.4c-0.2,0.1-0.5,0.1-0.7,0.1H107
	c-0.5,0-1-0.2-1.3-0.5c-0.4-0.3-0.5-0.8-0.5-1.3c0-1.7,0-3.8,0-5.5 M111.6,42.8C111.6,42.8,111.6,42.8,111.6,42.8l-0.5,0L111.6,42.8
	L111.6,42.8z M111.6,42.8v3.7 M111.6,46.6C111.6,46.6,111.6,46.6,111.6,46.6l-0.5,0 M111.6,46.6L111.6,46.6l-0.5,0 M111.6,46.6
	c0,0.2,0,0.3-0.1,0.5l-0.5-0.2l0.5,0.2c-0.1,0.2-0.2,0.3-0.3,0.4c-0.2,0.2-0.4,0.3-0.4,0.3c0,0-0.2,0.1-0.5,0.1c0,0,0,0,0,0
	c-0.1,0-4.1,0-5.1,0"/>
<path class="st0" d="M172.1,47.3L172.1,47.3v4.9c0,0.4-0.1,0.7-0.2,1c-0.1,0.3-0.3,0.6-0.6,0.9s-0.6,0.4-0.9,0.6
	c-0.3,0.1-0.7,0.2-1,0.2h0h-37.1c-0.7,0-1.4-0.3-1.9-0.8c-0.5-0.5-0.8-1.2-0.8-1.9v-3.8c0-0.6,0.2-1.1,0.5-1.6c0,0,0,0,0,0
	l25.5-35.3l0.6-0.8h-1h-21.7c-0.7,0-1.4-0.3-1.9-0.8c-0.5-0.5-0.8-1.2-0.8-1.9V3.2c0-0.7,0.3-1.4,0.8-1.9c0.5-0.5,1.2-0.8,1.9-0.8
	l34.8,0l0,0c0.4,0,0.7,0.1,1,0.2c0.3,0.1,0.6,0.3,0.9,0.6c0.3,0.3,0.5,0.5,0.6,0.9s0.2,0.7,0.2,1V7c0,0,0,0,0,0
	c0,0.6-0.2,1.1-0.5,1.6l0,0l-25.4,35.3l-0.6,0.8h1h23.9h0c0.4,0,0.7,0.1,1,0.2c0.3,0.1,0.6,0.3,0.9,0.6c0.3,0.3,0.5,0.6,0.6,0.9
	C172,46.6,172.1,47,172.1,47.3z"/>
<path class="st0" d="M185.4,2.4L185.4,2.4c0-0.2,0-0.5,0.1-0.7c0.1-0.2,0.2-0.4,0.4-0.6c0.2-0.2,0.4-0.3,0.6-0.4
	c0.2-0.1,0.5-0.1,0.7-0.1h7.5c0.5,0,1,0.2,1.3,0.5c0.4,0.3,0.6,0.8,0.6,1.3v30.8c0,4.4,1.6,7.5,4.2,9.5c2.6,2,6.1,2.9,10.1,2.9
	c4.1,0,7.6-0.9,10-2.9c2.5-2,3.9-5.2,3.9-9.5V2.4v0c0-0.2,0-0.5,0.1-0.7c0.1-0.2,0.2-0.4,0.4-0.6c0.2-0.2,0.4-0.3,0.6-0.4
	c0.2-0.1,0.5-0.1,0.7-0.1h7.5c0.5,0,1,0.2,1.3,0.5c0.4,0.3,0.6,0.8,0.6,1.3v0l0.1,32.8c0,0,0,0,0,0c0,6.6-1.8,11.5-4.7,14.7
	c-2.8,3.2-6.8,4.9-11.1,4.9h-19.2c-4.1,0-8.1-1.4-11-4.5c-2.9-3.1-4.9-8-4.9-15V2.4z"/>
<path class="st0" d="M292,47.3L292,47.3v4.9c0,0.7-0.3,1.4-0.8,1.9c-0.5,0.5-1.2,0.8-1.9,0.8h-37.1c-0.4,0-0.7-0.1-1-0.2
	c-0.3-0.1-0.6-0.3-0.9-0.6c-0.3-0.3-0.5-0.5-0.6-0.9c-0.1-0.3-0.2-0.7-0.2-1v0v-3.8c0-0.6,0.2-1.1,0.5-1.6c0,0,0,0,0,0l25.5-35.3
	l0.6-0.8h-1h-21.7c-0.7,0-1.4-0.3-1.9-0.8c-0.5-0.5-0.8-1.2-0.8-1.9V3.2c0-0.7,0.3-1.4,0.8-1.9c0.5-0.5,1.2-0.8,1.9-0.8l34.8,0l0,0
	c0.4,0,0.7,0.1,1,0.2c0.3,0.1,0.6,0.3,0.9,0.6l0.4-0.4l-0.4,0.4c0.3,0.3,0.5,0.5,0.6,0.9c0.1,0.3,0.2,0.7,0.2,1V7
	c0,0.6-0.2,1.1-0.5,1.6v0L265,43.8l-0.6,0.8h1h23.9l0,0c0.4,0,0.7,0.1,1,0.2c0.3,0.1,0.6,0.3,0.9,0.6c0.3,0.3,0.5,0.5,0.6,0.9
	C291.9,46.6,292,46.9,292,47.3z"/>
<path class="st0" d="M305.3,27.6L305.3,27.6c0-15.4,12.2-27.1,27.3-27.1c15.2,0,27.3,11.7,27.3,27.1c0,15.3-12.1,27.1-27.3,27.1l0,0
	c-3.6,0-7.1-0.6-10.5-2c-3.3-1.3-6.3-3.3-8.9-5.9c-2.5-2.5-4.5-5.5-5.9-8.8C306,34.7,305.3,31.2,305.3,27.6z M349.5,27.6
	c0-9.8-7.4-17.1-16.9-17.1s-16.9,7.3-16.9,17.1s7.4,17.1,16.9,17.1S349.5,37.4,349.5,27.6z"/>
</svg>
