<svg width="114" height="111" viewBox="0 0 114 111" fill="none" xmlns="http://www.w3.org/2000/svg">
<g clip-path="url(#clip0)">
<path d="M13.9031 49.2134H1.16992V31.5622H13.9031V27.4335C13.9031 10.7317 24.735 0.719238 39.8593 0.719238C45.5921 0.719238 50.8496 1.98518 54.5082 3.89848L50.3743 18.2122C48.617 17.1045 46.2403 16.6298 43.8492 16.6298C38.1164 16.6298 34.2993 20.442 34.2993 27.7643V31.5765H49.8989V49.2278H34.2849V108.382H13.9031V49.2134Z" stroke="white"/>
<path d="M88.6025 46.926C100.99 46.926 108.495 52.2919 112.499 57.8016L102.114 67.5407C99.2328 63.2969 94.8539 61.0384 89.3516 61.0384C79.7152 61.0384 72.9597 68.0298 72.9597 78.5314C72.9597 89.0329 79.7152 96.1539 89.3516 96.1539C94.8539 96.1539 99.2328 93.6507 102.114 89.6515L112.499 99.2756C108.495 104.9 100.99 110.266 88.6025 110.266C69.9637 110.266 56.5679 97.1465 56.5679 78.5314C56.5679 60.0458 69.9637 46.926 88.6025 46.926Z" stroke="white"/>
</g>
<defs>
<clipPath id="clip0">
<rect width="113" height="111" fill="white" transform="translate(0.449707)"/>
</clipPath>
</defs>
</svg>
